<?xml version="1.0" standalone="no"?>
<!DOCTYPE svg PUBLIC "-//W3C//DTD SVG 1.0//EN" "http://www.w3.org/TR/2001/REC-SVG-20010904/DTD/svg10.dtd">
<svg xmlns="http://www.w3.org/2000/svg" xmlns:xlink="http://www.w3.org/1999/xlink" id="body_1" width="96" height="96">

<g transform="matrix(0.21065061 0 0 0.21065061 0 0)">
	<g>
        <path d="M0 0L455.731 0L455.731 455.731L0 455.731z" stroke="none" fill="#7B4211" fill-rule="nonzero" />
		<g>
            <path d="M296.208 159.16C 234.445 97.397 152.266 63.382 64.81 63.382L64.81 63.382L64.81 127.729996C 135.078 127.729996 201.09799 155.051 250.708 204.661C 300.317 254.271 327.63898 320.291 327.63898 390.559L327.63898 390.559L391.98697 390.559C 391.986 303.103 357.971 220.923 296.208 159.16z" stroke="none" fill="#FFFFFF" fill-rule="nonzero" />
            <path d="M64.143 172.273L64.143 236.621C 149.02399 236.621 218.081 305.677 218.081 390.56L218.081 390.56L282.429 390.56C 282.429 270.196 184.507 172.273 64.143 172.273z" stroke="none" fill="#FFFFFF" fill-rule="nonzero" />
            <path d="M155.921 346.26C 155.92102 358.98688 151.42139 369.8499 142.42213 378.84915C 133.4229 387.84842 122.55985 392.34805 109.833 392.34802C 97.10615 392.34805 86.2431 387.84842 77.243866 378.84915C 68.24462 369.8499 63.745 358.98688 63.745 346.26C 63.745 333.53317 68.24462 322.6701 77.243866 313.67087C 86.2431 304.67163 97.10615 300.172 109.833 300.172C 122.55985 300.172 133.4229 304.67163 142.42213 313.67087C 151.42139 322.6701 155.92102 333.53317 155.921 346.26C 155.92102 346.79633 155.91165 347.3325 155.89293 347.86847" stroke="none" fill="#FFFFFF" fill-rule="nonzero" />
		</g>
	</g>
	<g>
	</g>
	<g>
	</g>
	<g>
	</g>
	<g>
	</g>
	<g>
	</g>
	<g>
	</g>
	<g>
	</g>
	<g>
	</g>
	<g>
	</g>
	<g>
	</g>
	<g>
	</g>
	<g>
	</g>
	<g>
	</g>
	<g>
	</g>
	<g>
	</g>
</g>
</svg>
